nColumns=19
nRows=58
DataType=double
version=3
OpenSimVersion=4.1
endheader
time	ground_force_1_vx	ground_force_1_vy	ground_force_1_vz	ground_force_1_px	ground_force_1_py	ground_force_1_pz	ground_force_1_mx	ground_force_1_my	ground_force_1_mz	ground_force_2_vx	ground_force_2_vy	ground_force_2_vz	ground_force_2_px	ground_force_2_py	ground_force_2_pz	ground_force_2_mx	ground_force_2_my	ground_force_2_mz
0	-26.916	227.848	-4.4611	0.164829	0.006	-0.142223	0	-0.253678	0	0	0	0	0.672714	0	-0.230743	0	0	0
0.01	-32.6462	251.617	-6.28358	0.170255	0.006	-0.141821	0	-0.205484	0	0	0	0	0.672714	0	-0.230743	0	0	0
0.02	-39.1561	278.584	-8.18948	0.17649	0.006	-0.141419	0	-0.126822	0	0	0	0	0.672714	0	-0.230743	0	0	0
0.03	-46.2585	308.23	-10.1035	0.182409	0.006	-0.141099	0	-0.01749	0	0	0	0	0.672714	0	-0.230743	0	0	0
0.04	-53.6804	339.813	-11.9632	0.187908	0.006	-0.140854	0	0.119169	0	0	0	0	0.672714	0	-0.230743	0	0	0
0.05	-61.1028	372.469	-13.7399	0.192942	0.006	-0.140665	0	0.275965	0	0	0	0	0.672714	0	-0.230743	0	0	0
0.06	-68.2209	405.378	-15.4459	0.197517	0.006	-0.140509	0	0.443266	0	0	0	0	0.672714	0	-0.230743	0	0	0
0.07	-74.7779	437.839	-17.1036	0.201669	0.006	-0.140363	0	0.611935	0	0	0	0	0.672714	0	-0.230743	0	0	0
0.08	-80.5633	469.264	-18.7253	0.205447	0.006	-0.140213	0	0.77483	0	0	0	0	0.672714	0	-0.230743	0	0	0
0.09	-85.421	499.145	-20.3161	0.208904	0.006	-0.140046	0	0.926126	0	0	0	0	0.672714	0	-0.230743	0	0	0
0.1	-89.2501	527.02	-21.8697	0.212098	0.006	-0.139853	0	1.06155	0	0	0	0	0.672714	0	-0.230743	0	0	0
0.11	-92.0035	552.466	-23.3639	0.215088	0.006	-0.13963	0	1.17837	0	0	0	0	0.672714	0	-0.230743	0	0	0
0.12	-93.6829	575.111	-24.7669	0.217926	0.006	-0.139375	0	1.27477	0	0	0	0	0.672714	0	-0.230743	0	0	0
0.13	-94.327	594.656	-26.0411	0.220663	0.006	-0.139089	0	1.34937	0	0	0	0	0.672714	0	-0.230743	0	0	0
0.14	-93.9985	610.878	-27.1463	0.223335	0.006	-0.138774	0	1.40102	0	0	0	0	0.672714	0	-0.230743	0	0	0
0.15	-92.7748	623.641	-28.0436	0.225973	0.006	-0.138434	0	1.42857	0	0	0	0	0.672714	0	-0.230743	0	0	0
0.16	-90.7439	632.898	-28.6995	0.228596	0.006	-0.138074	0	1.43108	0	0	0	0	0.672714	0	-0.230743	0	0	0
0.17	-88.004	638.696	-29.0905	0.231221	0.006	-0.137697	0	1.40808	0	0	0	0	0.672714	0	-0.230743	0	0	0
0.18	-84.6612	641.188	-29.2092	0.233861	0.006	-0.137309	0	1.35988	0	0	0	0	0.672714	0	-0.230743	0	0	0
0.19	-80.8278	640.616	-29.0667	0.236529	0.006	-0.13691	0	1.2877	0	0	0	0	0.672714	0	-0.230743	0	0	0
0.2	-76.6177	637.296	-28.6893	0.239232	0.006	-0.136503	0	1.19356	0	0	0	0	0.672714	0	-0.230743	0	0	0
0.21	-72.1401	631.594	-28.1126	0.241977	0.006	-0.13609	0	1.08007	0	0	0	0	0.672714	0	-0.230743	0	0	0
0.22	-67.4946	623.909	-27.3775	0.244765	0.006	-0.135672	0	0.949944	0	0	0	0	0.672714	0	-0.230743	0	0	0
0.23	-62.7669	614.652	-26.5246	0.247595	0.006	-0.135252	0	0.805569	0	0	0	0	0.672714	0	-0.230743	0	0	0
0.24	-58.0285	604.242	-25.59	0.250459	0.006	-0.134832	0	0.648737	0	0	0	0	0.672714	0	-0.230743	0	0	0
0.25	-53.3377	593.088	-24.6037	0.253346	0.006	-0.134416	0	0.480609	0	0	0	0	0.672714	0	-0.230743	0	0	0
0.26	-48.74	581.591	-23.5886	0.256242	0.006	-0.13401	0	0.301898	0	0	0	0	0.672714	0	-0.230743	0	0	0
0.27	-44.2706	570.132	-22.5623	0.259131	0.006	-0.13362	0	0.11304	0	0	0	0	0.672714	0	-0.230743	0	0	0
0.28	-39.9554	559.067	-21.5398	0.261993	0.006	-0.133252	0	-0.085497	0	0	0	0	0.672714	0	-0.230743	0	0	0
0.29	-35.8124	548.716	-20.537	0.264811	0.006	-0.132912	0	-0.292949	0	0	0	0	0.672714	0	-0.230743	0	0	0
0.3	-31.8528	539.359	-19.5735	0.267568	0.006	-0.132605	0	-0.508082	0	0	0	0	0.672714	0	-0.230743	0	0	0
0.31	-28.0808	531.232	-18.6737	0.270248	0.006	-0.132333	0	-0.729102	0	0	0	0	0.672714	0	-0.230743	0	0	0
0.32	-24.4935	524.522	-17.8653	0.272839	0.006	-0.132098	0	-0.953753	0	0	0	0	0.672714	0	-0.230743	0	0	0
0.33	-21.0796	519.373	-17.1785	0.275329	0.006	-0.131898	0	-1.17957	0	0	0	0	0.672714	0	-0.230743	0	0	0
0.34	-17.8202	515.881	-16.6444	0.277714	0.006	-0.131729	0	-1.40396	0	0	0	0	0.672714	0	-0.230743	0	0	0
0.35	-14.689	514.1	-16.2937	0.27999	0.006	-0.131585	0	-1.62418	0	0	0	0	0.672714	0	-0.230743	0	0	0
0.36	-11.6544	514.045	-16.1547	0.282157	0.006	-0.13146	0	-1.83747	0	0	0	0	0.672714	0	-0.230743	0	0	0
0.37	-8.68202	515.694	-16.252	0.284224	0.006	-0.131347	0	-2.04088	0	0	0	0	0.672714	0	-0.230743	0	0	0
0.38	-5.7358	518.989	-16.6041	0.2862	0.006	-0.131239	0	-2.2314	0	0	0	0	0.672714	0	-0.230743	0	0	0
0.39	-2.77931	523.845	-17.2219	0.288103	0.006	-0.131131	0	-2.40599	0	0	0	0	0.672714	0	-0.230743	0	0	0
0.4	0.223097	530.145	-18.1072	0.28995	0.006	-0.131017	0	-2.56169	0	0	0	0	0.672714	0	-0.230743	0	0	0
0.41	3.30516	537.737	-19.2522	0.291762	0.006	-0.130895	0	-2.69551	0	0	0	0	0.672714	0	-0.230743	0	0	0
0.42	6.49712	546.438	-20.6388	0.293562	0.006	-0.130763	0	-2.80438	0	0	0	0	0.672714	0	-0.230743	0	0	0
0.43	9.82352	556.032	-22.2386	0.29537	0.006	-0.130621	0	-2.88517	0	0	0	0	0.672714	0	-0.230743	0	0	0
0.44	13.3021	566.276	-24.0126	0.297208	0.006	-0.130472	0	-2.93489	0	0	0	0	0.672714	0	-0.230743	0	0	0
0.45	16.9439	576.907	-25.9108	0.299092	0.006	-0.130321	0	-2.95116	0	0	0	0	0.672714	0	-0.230743	0	0	0
0.46	20.7539	587.643	-27.8736	0.301036	0.006	-0.130173	0	-2.93245	0	0	0	0	0.672714	0	-0.230743	0	0	0
0.47	24.7321	598.183	-29.8336	0.30305	0.006	-0.130035	0	-2.87839	0	0	0	0	0.672714	0	-0.230743	0	0	0
0.48	28.8745	608.209	-31.7172	0.305139	0.006	-0.129913	0	-2.78983	0	0	0	0	0.672714	0	-0.230743	0	0	0
0.49	33.175	617.378	-33.4472	0.3073	0.006	-0.129815	0	-2.66893	0	0	0	0	0.672714	0	-0.230743	0	0	0
0.5	37.6242	625.328	-34.9472	0.309529	0.006	-0.129747	0	-2.51917	0	0	0	0	0.672714	0	-0.230743	0	0	0
0.51	42.2066	631.673	-36.1439	0.311815	0.006	-0.129712	0	-2.34526	0	0	0	0	0.672714	0	-0.230743	0	0	0
0.52	46.8962	636.004	-36.9694	0.314145	0.006	-0.129716	0	-2.15309	0	0	0	0	0.672714	0	-0.230743	0	0	0
0.53	51.6514	637.898	-37.3643	0.316507	0.006	-0.129762	0	-1.94966	0	7.11556	25.4287	-2.57222	0.685353	0.006	-0.23583	0	0.756567	0
0.54	56.4118	636.93	-37.2802	0.31889	0.006	-0.129851	0	-1.7426	0	7.36065	38.6913	-2.76204	0.714082	0.006	-0.246706	0	0.778012	0
0.55	61.0954	632.687	-36.6846	0.321284	0.006	-0.129985	0	-1.53941	0	7.02662	54.5022	-2.96415	0.7319	0.006	-0.252644	0	0.80419	0
0.56	65.5965	624.793	-35.5644	0.323683	0.006	-0.130163	0	-1.34661	0	5.89555	72.7652	-3.16704	0.744483	0.006	-0.256207	0	0.833382	0
0.57	69.7867	612.93	-33.9297	0.326085	0.006	-0.130383	0	-1.16936	0	3.78806	93.2889	-3.3482	0.754285	0.006	-0.258496	0	0.864352	0
